<?xml version="1.0" encoding="UTF-8"?>
<svg version="1.1" xmlns="http://www.w3.org/2000/svg" width="172" height="178">
<path d="M0 0 C56.76 0 113.52 0 172 0 C172 58.74 172 117.48 172 178 C115.24 178 58.48 178 0 178 C0 119.26 0 60.52 0 0 Z " fill="#ffffff" transform="translate(0,0)"/>
<path d="M0 0 C3.27929669 1.45529996 6.30638678 3.27276881 9.375 5.125 C10.28403076 5.65907471 11.19306152 6.19314941 12.12963867 6.7434082 C14.07929621 7.88988566 16.02573757 9.04184671 17.96923828 10.19873047 C22.05447155 12.62670301 26.1598375 15.01945949 30.26611328 17.41162109 C32.22060131 18.55098204 34.17354305 19.69300209 36.12451172 20.83837891 C44.36124545 25.66671001 52.67348537 30.31633552 61 35 C61 68 61 101 61 135 C49.12 135 37.24 135 25 135 C24.93941406 131.35324219 24.87882812 127.70648438 24.81640625 123.94921875 C24.754631 120.42453914 24.69123741 116.89989211 24.62768555 113.37524414 C24.58432398 110.92214851 24.54264981 108.46902247 24.50268555 106.01586914 C24.44501279 102.49355899 24.38130948 98.97140216 24.31640625 95.44921875 C24.29969376 94.34913986 24.28298126 93.24906097 24.26576233 92.11564636 C24.2358445 90.58439873 24.2358445 90.58439873 24.20532227 89.0222168 C24.18200584 87.67319527 24.18200584 87.67319527 24.15821838 86.29692078 C24.08512661 83.83823531 24.08512661 83.83823531 23 81 C20.1910797 80.06369323 18.4114412 79.85889025 15.50024414 79.82299805 C14.59242691 79.81016281 13.68460968 79.79732758 12.74928284 79.78410339 C11.77112106 79.77671646 10.79295929 79.76932953 9.78515625 79.76171875 C8.77786972 79.753647 7.77058319 79.74557526 6.73277283 79.73725891 C4.60189532 79.72342881 2.47099576 79.71270185 0.34008789 79.70483398 C-2.92148509 79.6875847 -6.1820539 79.6436844 -9.44335938 79.59960938 C-11.51301338 79.58948546 -13.58267599 79.58096842 -15.65234375 79.57421875 C-17.11655006 79.54795662 -17.11655006 79.54795662 -18.6103363 79.52116394 C-19.52130569 79.52408951 -20.43227509 79.52701508 -21.37084961 79.5300293 C-22.56973061 79.52122993 -22.56973061 79.52122993 -23.79283142 79.51225281 C-26.91051279 80.20120804 -28.08413653 81.48371078 -30 84 C-30.61002162 86.44817226 -30.61002162 86.44817226 -30.54589844 89.13574219 C-30.56561707 90.15649841 -30.58533569 91.17725464 -30.60565186 92.22894287 C-30.60749481 93.87131927 -30.60749481 93.87131927 -30.609375 95.546875 C-30.62591125 96.6732135 -30.64244751 97.799552 -30.65948486 98.96002197 C-30.7080613 102.55673625 -30.72935809 106.15302742 -30.75 109.75 C-30.77815147 112.18882348 -30.80807773 114.62762717 -30.83984375 117.06640625 C-30.9171638 123.04446733 -30.95759703 129.02118098 -31 135 C-42.88 135 -54.76 135 -67 135 C-67 102 -67 69 -67 35 C-59.41 30.71 -51.82 26.42 -44 22 C-39.80483393 19.57368253 -35.61544062 17.14259399 -31.4375 14.6875 C-29.43883798 13.52207385 -27.44014024 12.35670896 -25.44140625 11.19140625 C-22.14310973 9.26383036 -18.85824993 7.317629 -15.58984375 5.33984375 C-14.94926025 4.95803955 -14.30867676 4.57623535 -13.64868164 4.18286133 C-12.02871535 3.2166791 -10.41628359 2.23789256 -8.8046875 1.2578125 C-5.38381463 -0.2763394 -3.72125508 -0.59612339 0 0 Z " fill="#000000" transform="translate(89,21)"/>
<path d="M0 0 C56.76 0 113.52 0 172 0 C172 58.74 172 117.48 172 178 C115.24 178 58.48 178 0 178 C0 119.26 0 60.52 0 0 Z M81.95068359 5.20776367 C74.52420354 6.39698233 68.43325502 10.40326692 62.0625 14.1875 C60.83538878 14.90471541 59.60759312 15.62076095 58.37915039 16.33569336 C55.84487042 17.81236286 53.31428871 19.29509863 50.78613281 20.78222656 C47.12950392 22.92947262 43.45466344 25.04370674 39.7734375 27.1484375 C38.6118752 27.81351851 37.45033514 28.47863834 36.28881836 29.14379883 C34.12321396 30.38365349 31.95737726 31.62310252 29.79125977 32.86206055 C24.80053881 35.73602047 19.84307691 38.65994551 14.94140625 41.68359375 C14.06299072 42.2242749 13.1845752 42.76495605 12.27954102 43.32202148 C9.08055092 45.67680984 7.33797811 47.53463589 6.43370056 51.45529175 C5.84433242 56.27229753 5.82742286 61.03409801 5.80712891 65.88305664 C5.79895142 66.96830124 5.79077393 68.05354584 5.78234863 69.17167664 C5.75759973 72.75116431 5.74101126 76.3306128 5.7265625 79.91015625 C5.72123882 81.13406004 5.71591515 82.35796383 5.71043015 83.61895561 C5.68375255 90.08914437 5.66435485 96.55931412 5.64990234 103.02954102 C5.63751528 108.38679645 5.60927316 113.74372236 5.56787109 119.10083008 C5.51866745 125.5722285 5.49379746 132.04328264 5.48667526 138.51486015 C5.47994937 140.98087768 5.46469288 143.44688713 5.44078445 145.91279793 C5.40927179 149.35772291 5.4090751 152.80130746 5.41650391 156.24633789 C5.3918959 157.77615799 5.3918959 157.77615799 5.36679077 159.33688354 C5.40739121 163.92765756 5.5033211 166.28426165 8.17318726 170.13166809 C11.37728992 172.2493631 13.00364362 172.63188422 16.8125 172.64697266 C17.9571875 172.66273346 19.101875 172.67849426 20.28125 172.69473267 C21.5084375 172.68461151 22.735625 172.67449036 24 172.6640625 C25.2684375 172.66884613 26.536875 172.67362976 27.84375 172.67855835 C30.52430824 172.68195934 33.20258142 172.67527278 35.8828125 172.65185547 C39.30975855 172.62336542 42.73474681 172.63977701 46.16162109 172.66971779 C49.44114993 172.69218044 52.72044556 172.67643061 56 172.6640625 C57.2271875 172.67418365 58.454375 172.68430481 59.71875 172.69473267 C64.57215333 172.62790785 67.99348594 172.55622949 72.28198242 170.1862793 C74.91490332 165.30319693 74.61759038 160.81594749 74.48828125 155.35546875 C74.48120651 154.2305452 74.47413177 153.10562164 74.46684265 151.9466095 C74.43889144 148.35955851 74.37614717 144.77407788 74.3125 141.1875 C74.28741827 138.75327778 74.26460489 136.31903105 74.24414062 133.88476562 C74.19331657 127.92208788 74.09545568 121.96279799 74 116 C81.92 116 89.84 116 98 116 C97.94199219 119.62355469 97.88398437 123.24710937 97.82421875 126.98046875 C97.78521943 130.4919211 97.75486247 134.00334927 97.7253418 137.51489258 C97.70020504 139.95445564 97.66609054 142.39394345 97.62280273 144.83325195 C97.56211771 148.34084646 97.533781 151.8474449 97.51171875 155.35546875 C97.47300911 156.99010323 97.47300911 156.99010323 97.43351746 158.65776062 C97.43184538 163.17685861 97.55542335 166.17925276 99.72949219 170.19287109 C104.93022108 173.06654945 109.9736471 172.65303089 115.81640625 172.55859375 C117.06501938 172.55626236 118.31363251 172.55393097 119.6000824 172.55152893 C122.23775635 172.54179103 124.87325784 172.52274987 127.51049805 172.48706055 C130.88546495 172.44174189 134.25966081 172.42703128 137.63490391 172.42332363 C140.86215879 172.41782334 144.0892381 172.39444665 147.31640625 172.37109375 C149.13211876 172.3630497 149.13211876 172.3630497 150.98451233 172.35484314 C152.67162575 172.33086205 152.67162575 172.33086205 154.39282227 172.30639648 C155.38145767 172.29575668 156.37009308 172.28511688 157.38868713 172.27415466 C160.1170614 171.98771004 161.71801971 171.50243729 164 170 C166.1310299 166.80345515 166.25271743 165.98993138 166.26742554 162.32049561 C166.27595551 161.35886002 166.28448547 160.39722443 166.29327393 159.40644836 C166.29236755 158.35289658 166.29146118 157.29934479 166.29052734 156.21386719 C166.29724457 155.10301254 166.30396179 153.9921579 166.31088257 152.84764099 C166.32992772 149.16400719 166.33379034 145.48055502 166.3359375 141.796875 C166.34236183 139.23960291 166.34908991 136.68233156 166.35610962 134.12506104 C166.36809938 128.75832112 166.37187432 123.3916491 166.37060547 118.02490234 C166.36940546 111.83152322 166.39047783 105.63849338 166.4220928 99.44520259 C166.4514556 93.47954397 166.4585799 87.51399139 166.45738602 81.54825592 C166.45974579 79.01413804 166.46859035 76.48001756 166.48405075 73.94594574 C166.50366482 70.39824057 166.49788925 66.85143079 166.48583984 63.30371094 C166.49707886 62.25825607 166.50831787 61.21280121 166.51989746 60.13566589 C166.46590794 53.8742107 165.71014693 50.10204584 162 45 C159.59758657 42.93207871 159.59758657 42.93207871 156.6875 41.375 C156.1419043 41.05708496 155.59630859 40.73916992 155.03417969 40.41162109 C153.03355716 39.2545246 151.01743138 38.12753129 149 37 C147.20917465 35.98518768 145.41884431 34.96950152 143.62890625 33.953125 C139.66648743 31.70709799 135.69786 29.47246973 131.7265625 27.2421875 C126.81884499 24.47702437 121.96419136 21.63282523 117.125 18.75 C111.43348804 15.39152289 105.72153874 12.07187611 99.9375 8.875 C99.25896973 8.4840918 98.58043945 8.09318359 97.88134766 7.69042969 C92.44915989 4.74447639 87.99097583 4.59538713 81.95068359 5.20776367 Z " fill="#000000" transform="translate(0,0)"/>
</svg>
