<?xml version="1.0" encoding="UTF-8"?>
<svg version="1.1" xmlns="http://www.w3.org/2000/svg" width="132" height="132">
<path d="M0 0 C43.56 0 87.12 0 132 0 C132 43.56 132 87.12 132 132 C88.44 132 44.88 132 0 132 C0 88.44 0 44.88 0 0 Z " fill="#000000" transform="translate(0,0)"/>
<path d="M0 0 C5.9538793 1.15891355 11.1495634 4.72779972 16.328125 7.7265625 C17.39675781 8.33113281 18.46539062 8.93570312 19.56640625 9.55859375 C38.09262447 20.11606197 38.09262447 20.11606197 42.078125 24.1015625 C42.28741447 27.00211923 42.37175905 29.8079548 42.36865234 32.71044922 C42.37536957 33.60164459 42.38208679 34.49283997 42.38900757 35.41104126 C42.40806193 38.36783366 42.41191558 41.32439996 42.4140625 44.28125 C42.42048557 46.33147273 42.42721355 48.38169452 42.43423462 50.43191528 C42.44622622 54.73441697 42.44991354 59.03683825 42.44873047 63.33935547 C42.44852724 68.8566926 42.47582476 74.37351483 42.51027489 79.8907299 C42.53249711 84.12690607 42.53656944 88.36295745 42.53551102 92.59918594 C42.53787421 94.63339131 42.54673795 96.66759974 42.56217575 98.70174789 C42.58173991 101.54616217 42.57603529 104.38945494 42.56396484 107.23388672 C42.57520386 108.07663147 42.58644287 108.91937622 42.59802246 109.78765869 C42.55917761 113.38418863 42.40218647 115.63977191 40.30839539 118.6234436 C37.90327826 120.21744274 36.75783795 120.60637458 33.90795898 120.61914062 C33.09709335 120.63174927 32.28622772 120.64435791 31.45079041 120.65734863 C30.58402176 120.64925171 29.71725311 120.64115479 28.82421875 120.6328125 C27.92695572 120.6366394 27.02969269 120.64046631 26.10523987 120.64440918 C24.2115059 120.64712744 22.31773433 120.63977221 20.42407227 120.62304688 C17.52210091 120.60161034 14.62259817 120.62286364 11.72070312 120.6484375 C9.88020286 120.6457947 8.03970414 120.64067071 6.19921875 120.6328125 C4.89602943 120.64495789 4.89602943 120.64495789 3.56651306 120.65734863 C2.75879959 120.64473999 1.95108612 120.63213135 1.11889648 120.61914062 C0.40926254 120.61595825 -0.3003714 120.61277588 -1.0315094 120.60949707 C-3.77410158 119.87257222 -4.44682025 118.47856305 -5.921875 116.1015625 C-6.29939842 113.85298824 -6.29939842 113.85298824 -6.30282593 111.35081482 C-6.3112854 110.39885223 -6.31974487 109.44688965 -6.32846069 108.46607971 C-6.322388 107.4285405 -6.31631531 106.39100128 -6.31005859 105.32202148 C-6.31531555 104.22410278 -6.32057251 103.12618408 -6.32598877 101.99499512 C-6.33920309 98.36240454 -6.33044588 94.73025136 -6.3203125 91.09765625 C-6.32233267 88.57707129 -6.32524363 86.05648689 -6.32901001 83.53590393 C-6.3334352 78.25247088 -6.32728098 72.96919503 -6.31298828 67.68579102 C-6.2966536 61.57699235 -6.30195685 55.46849395 -6.3184675 49.35970253 C-6.33371744 43.48211186 -6.33210929 37.60461455 -6.3233223 31.72700691 C-6.32131719 29.22588115 -6.3237904 26.72474776 -6.33076096 24.22363091 C-6.33835502 20.73278179 -6.32679968 17.2425146 -6.31005859 13.75170898 C-6.31613129 12.71214554 -6.32220398 11.67258209 -6.32846069 10.60151672 C-6.31577148 9.17780258 -6.31577148 9.17780258 -6.30282593 7.72532654 C-6.30169485 6.89998633 -6.30056377 6.07464613 -6.29939842 5.22429562 C-5.60246219 1.30557285 -3.86757772 0.13443452 0 0 Z " fill="#B1B1B1" transform="translate(81.921875,3.8984375)"/>
<path d="M0 0 C2.475 0.99 2.475 0.99 5 2 C6.53325932 2.40590267 8.06753579 2.80798174 9.6027832 3.20629883 C15.6014971 5.23550018 20.40502986 7.62650698 24 13 C27.17102273 24.85672647 25.87105526 37.77642312 25.30462646 49.91314697 C25.10912383 54.54398197 25.02325461 59.17676234 24.92773438 63.81054688 C24.72481603 72.87970518 24.39117865 81.93700838 24 91 C16.08 91 8.16 91 0 91 C0 60.97 0 30.94 0 0 Z " fill="#000000" transform="translate(88,21)"/>
<path d="M0 0 C3.4375 0.8125 3.4375 0.8125 5.4375 2.8125 C5.69476891 4.81218529 5.69476891 4.81218529 5.70492554 7.31600952 C5.71345551 8.26377762 5.72198547 9.21154572 5.73077393 10.18803406 C5.72941437 11.75277214 5.72941437 11.75277214 5.72802734 13.34912109 C5.73810318 14.99315163 5.73810318 14.99315163 5.74838257 16.6703949 C5.76744668 20.30895468 5.77129106 23.94733083 5.7734375 27.5859375 C5.77985973 30.10698524 5.78658764 32.62803223 5.79360962 35.14907837 C5.80560358 40.44022654 5.80937371 45.73130582 5.80810547 51.02246094 C5.80690422 57.13805937 5.82799968 63.25330478 5.8595928 69.36881387 C5.88889629 75.25065306 5.89608158 81.13238439 5.89488602 87.0143013 C5.89725085 89.51740587 5.90612362 92.02051287 5.92155075 94.52357101 C5.94109086 98.02171057 5.93541907 101.51893637 5.92333984 105.01708984 C5.93457886 106.0562001 5.94581787 107.09531036 5.95739746 108.16590881 C5.89581561 115.16468973 5.89581561 115.16468973 3.56729126 118.45596313 C0.8940903 120.15861621 -0.45457547 120.45002298 -3.5625 119.8125 C-6.26659477 116.93273998 -6.93809649 114.97063682 -6.94345093 111.06175232 C-6.9519104 110.10978973 -6.96036987 109.15782715 -6.96908569 108.17701721 C-6.963013 107.139478 -6.95694031 106.10193878 -6.95068359 105.03295898 C-6.95594055 103.93504028 -6.96119751 102.83712158 -6.96661377 101.70593262 C-6.97982809 98.07334204 -6.97107088 94.44118886 -6.9609375 90.80859375 C-6.96295767 88.28800879 -6.96586863 85.76742439 -6.96963501 83.24684143 C-6.9740602 77.96340838 -6.96790598 72.68013253 -6.95361328 67.39672852 C-6.9372786 61.28792985 -6.94258185 55.17943145 -6.9590925 49.07064003 C-6.97434244 43.19304936 -6.97273429 37.31555205 -6.9639473 31.43794441 C-6.96194219 28.93681865 -6.9644154 26.43568526 -6.97138596 23.93456841 C-6.97898002 20.44371929 -6.96742468 16.9534521 -6.95068359 13.46264648 C-6.95675629 12.42308304 -6.96282898 11.38351959 -6.96908569 10.31245422 C-6.95639648 8.88874008 -6.95639648 8.88874008 -6.94345093 7.43626404 C-6.94231985 6.61092383 -6.94118877 5.78558363 -6.94002342 4.93523312 C-6.15667519 0.53063423 -4.27957521 -0.2252408 0 0 Z " fill="#B1B1B1" transform="translate(46.5625,4.1875)"/>
<path d="M0 0 C3.4375 0.8125 3.4375 0.8125 5.4375 2.8125 C5.69476891 4.81218529 5.69476891 4.81218529 5.70492554 7.31600952 C5.71345551 8.26377762 5.72198547 9.21154572 5.73077393 10.18803406 C5.72941437 11.75277214 5.72941437 11.75277214 5.72802734 13.34912109 C5.73810318 14.99315163 5.73810318 14.99315163 5.74838257 16.6703949 C5.76744668 20.30895468 5.77129106 23.94733083 5.7734375 27.5859375 C5.77985973 30.10698524 5.78658764 32.62803223 5.79360962 35.14907837 C5.80560358 40.44022654 5.80937371 45.73130582 5.80810547 51.02246094 C5.80690422 57.13805937 5.82799968 63.25330478 5.8595928 69.36881387 C5.88889629 75.25065306 5.89608158 81.13238439 5.89488602 87.0143013 C5.89725085 89.51740587 5.90612362 92.02051287 5.92155075 94.52357101 C5.94109086 98.02171057 5.93541907 101.51893637 5.92333984 105.01708984 C5.93457886 106.0562001 5.94581787 107.09531036 5.95739746 108.16590881 C5.89581561 115.16468973 5.89581561 115.16468973 3.56729126 118.45596313 C0.8940903 120.15861621 -0.45457547 120.45002298 -3.5625 119.8125 C-6.26659477 116.93273998 -6.93809649 114.97063682 -6.94345093 111.06175232 C-6.9519104 110.10978973 -6.96036987 109.15782715 -6.96908569 108.17701721 C-6.963013 107.139478 -6.95694031 106.10193878 -6.95068359 105.03295898 C-6.95594055 103.93504028 -6.96119751 102.83712158 -6.96661377 101.70593262 C-6.97982809 98.07334204 -6.97107088 94.44118886 -6.9609375 90.80859375 C-6.96295767 88.28800879 -6.96586863 85.76742439 -6.96963501 83.24684143 C-6.9740602 77.96340838 -6.96790598 72.68013253 -6.95361328 67.39672852 C-6.9372786 61.28792985 -6.94258185 55.17943145 -6.9590925 49.07064003 C-6.97434244 43.19304936 -6.97273429 37.31555205 -6.9639473 31.43794441 C-6.96194219 28.93681865 -6.9644154 26.43568526 -6.97138596 23.93456841 C-6.97898002 20.44371929 -6.96742468 16.9534521 -6.95068359 13.46264648 C-6.95675629 12.42308304 -6.96282898 11.38351959 -6.96908569 10.31245422 C-6.95639648 8.88874008 -6.95639648 8.88874008 -6.94345093 7.43626404 C-6.94231985 6.61092383 -6.94118877 5.78558363 -6.94002342 4.93523312 C-6.15667519 0.53063423 -4.27957521 -0.2252408 0 0 Z " fill="#B1B1B1" transform="translate(10.5625,4.1875)"/>
</svg>
