<?xml version="1.0" encoding="UTF-8"?>
<svg version="1.1" xmlns="http://www.w3.org/2000/svg" width="136" height="134">
<path d="M0 0 C44.88 0 89.76 0 136 0 C136 44.22 136 88.44 136 134 C91.12 134 46.24 134 0 134 C0 89.78 0 45.56 0 0 Z " fill="#010101" transform="translate(0,0)"/>
<path d="M0 0 C10.08798961 5.88935706 16.15304353 15.70131809 19.796875 26.6328125 C21.15403859 41.2789476 19.40155234 54.00497697 9.796875 65.6328125 C4.73366337 70.91207954 -0.45603037 74.81779951 -7.203125 77.6328125 C-8.4715625 78.220625 -8.4715625 78.220625 -9.765625 78.8203125 C-20.92531715 82.54020988 -33.54462614 81.35666713 -44.140625 76.5703125 C-55.19521993 70.69057461 -62.77633385 61.7664267 -67.078125 50.0703125 C-70.1574364 38.2910189 -69.28466569 26.23528688 -63.203125 15.6328125 C-57.54726472 6.29900839 -49.50605055 -0.73509158 -39.203125 -4.3671875 C-38.275 -4.72554687 -37.346875 -5.08390625 -36.390625 -5.453125 C-23.7754113 -9.07072305 -11.28914741 -5.70430464 0 0 Z " fill="#000000" transform="translate(83.203125,22.3671875)"/>
<path d="M0 0 C7.82210067 6.21415726 14.15620147 12.97867174 18.52734375 22.0078125 C18.93984375 22.82894531 19.35234375 23.65007813 19.77734375 24.49609375 C24.67909338 36.25688887 24.74954303 52.50005115 20.33984375 64.4453125 C18.41054818 68.64111575 16.14176915 72.54569521 13.34765625 76.2265625 C12.11603588 78.90093816 12.61438919 80.21565388 13.52734375 83.0078125 C15.33133116 85.09250145 17.08989353 86.91960365 19.09375 88.7890625 C20.22989263 89.88924555 21.365958 90.98950839 22.50195312 92.08984375 C24.29812493 93.80505371 26.09833935 95.51586265 27.90112305 97.22412109 C29.64247205 98.88107708 31.3684251 100.55295222 33.09375 102.2265625 C33.63745743 102.73191528 34.18116486 103.23726807 34.74134827 103.75793457 C37.09730643 106.05093772 38.44405742 107.44946174 38.93725586 110.75585938 C38.52734375 113.0078125 38.52734375 113.0078125 37.40234375 114.8203125 C34.44577582 116.69280552 32.9886543 116.66088996 29.52734375 116.0078125 C22.90131413 111.22500847 17.25749904 104.85768133 11.52734375 99.0703125 C10.65722656 98.19568359 9.78710938 97.32105469 8.890625 96.41992188 C6.76720826 94.28483801 4.64617997 92.14744045 2.52734375 90.0078125 C1.00367187 90.82185547 1.00367187 90.82185547 -0.55078125 91.65234375 C-16.29312548 99.90684281 -31.68852085 104.255626 -49.44140625 99.1015625 C-67.28990842 92.6613813 -78.45076836 82.23061659 -86.8515625 65.21484375 C-91.6697371 53.3121058 -91.17484043 37.91149662 -86.79296875 25.9609375 C-79.67937412 10.05005721 -69.33686789 -0.15229602 -53.41796875 -7.37890625 C-35.72415522 -13.79460199 -15.35624524 -10.66854933 0 0 Z M-68.28515625 17.9453125 C-76.46970082 27.740242 -78.3190609 38.45737414 -77.66357422 50.91162109 C-76.65685692 61.9649136 -70.61208665 71.36638178 -62.66015625 78.8203125 C-52.56170122 87.08622936 -41.32234627 89.90170398 -28.47265625 89.0078125 C-15.814864 87.34777417 -5.24884876 80.99687179 2.921875 71.29296875 C10.78958277 60.0944066 11.58652064 48.24030849 10.52734375 35.0078125 C8.19797281 24.13297788 0.09846973 15.05881825 -8.84765625 8.8828125 C-28.9386416 -4.05658038 -52.52003233 0.94697592 -68.28515625 17.9453125 Z " fill="#AEAEAE" transform="translate(92.47265625,13.9921875)"/>
</svg>
